<svg xmlns="http://www.w3.org/2000/svg" viewBox="0 0 98 96" role="img" aria-label="GitHub">
  <path fill="#24292f" d="M48.854 0C21.839 0 0 22 0 49.188c0 21.73 13.993 40.14 33.405 46.65 2.444.46 3.338-1.07 3.338-2.376 0-1.172-.043-4.28-.067-8.403-13.58 2.99-16.45-6.62-16.45-6.62-2.224-5.77-5.428-7.303-5.428-7.303-4.44-3.08.337-3.02.337-3.02 4.904.35 7.486 5.13 7.486 5.13 4.363 7.6 11.445 5.41 14.236 4.14.438-3.2 1.708-5.41 3.11-6.65-10.84-1.26-22.23-5.56-22.23-24.76 0-5.47 1.932-9.94 5.097-13.44-.51-1.26-2.21-6.33.48-13.2 0 0 4.16-1.35 13.64 5.12a47.11 47.11 0 0 1 12.41-1.7c4.21.02 8.46.58 12.42 1.7 9.47-6.47 13.63-5.12 13.63-5.12 2.7 6.87.99 11.94.48 13.2 3.17 3.5 5.09 7.97 5.09 13.44 0 19.25-11.4 23.48-22.27 24.72 1.75 1.55 3.3 4.6 3.3 9.27 0 6.7-.06 12.1-.06 13.74 0 1.32.88 2.86 3.36 2.37C84.02 89.32 98 70.91 98 49.18 98 22 76.06 0 48.854 0Z"/>
</svg>

